<?xml version="1.0" standalone="no"?>
<!DOCTYPE svg PUBLIC "-//W3C//DTD SVG 20010904//EN"
 "http://www.w3.org/TR/2001/REC-SVG-20010904/DTD/svg10.dtd">
<svg version="1.0" xmlns="http://www.w3.org/2000/svg"
 width="260.000000pt" height="260.000000pt" viewBox="0 0 260.000000 260.000000"
 preserveAspectRatio="xMidYMid meet">
<metadata>
Created by potrace 1.11, written by Peter Selinger 2001-2013
</metadata>
<g transform="translate(0.000000,260.000000) scale(0.100000,-0.100000)"
fill="#000000" stroke="none">
<path d="M1278 2312 l-1278 -257 0 -1021 0 -1021 163 28 c89 16 218 40 287 54
69 13 217 41 330 60 113 20 248 45 300 56 52 10 219 41 370 69 358 64 895 163
1038 191 l112 21 0 1002 c0 550 -3 1018 -6 1039 -5 25 -12 37 -23 36 -9 -1
-591 -116 -1293 -257z m787 -427 c89 -24 140 -53 199 -115 63 -66 100 -134
123 -227 23 -94 23 -371 0 -464 -56 -229 -211 -358 -427 -359 -132 0 -235 44
-316 133 -100 111 -134 227 -134 453 0 275 62 429 213 526 97 62 228 82 342
53z m-1752 -17 c3 -7 23 -56 45 -108 152 -366 247 -594 322 -770 15 -36 30
-74 34 -84 9 -25 9 -24 49 74 35 86 80 192 157 375 23 55 57 136 75 180 18 44
58 139 88 210 l55 130 71 3 71 3 0 -571 0 -570 -57 0 -56 0 6 483 c5 404 4
478 -7 457 -8 -14 -73 -167 -146 -340 -73 -173 -153 -362 -178 -420 -24 -58
-51 -122 -60 -143 -15 -37 -17 -38 -61 -35 l-45 3 -43 105 c-90 216 -149 356
-238 565 -25 61 -62 148 -81 194 -19 47 -37 87 -39 90 -3 2 -2 -212 2 -477 l6
-482 -56 0 -57 0 0 570 0 570 69 0 c46 0 71 -4 74 -12z"/>
<path d="M1851 1789 c-86 -26 -162 -104 -203 -208 -19 -49 -22 -79 -26 -248
-3 -158 -1 -202 13 -250 35 -121 100 -205 188 -244 73 -33 201 -33 272 -1 143
65 205 205 205 462 0 210 -27 311 -107 400 -67 74 -109 93 -218 97 -49 1 -105
-2 -124 -8z"/>
</g>
</svg>
